<?xml version="1.0" encoding="utf-8"?>
<!-- Generator: Adobe Illustrator 26.5.0, SVG Export Plug-In . SVG Version: 6.00 Build 0)  -->
<svg version="1.1" id="Layer_1" xmlns="http://www.w3.org/2000/svg" xmlns:xlink="http://www.w3.org/1999/xlink" x="0px" y="0px"
	 viewBox="0 0 462 328" style="enable-background:new 0 0 462 328;" xml:space="preserve">
<style type="text/css">
	.st0{fill:#023F50;}
	.st1{fill:#037A9B;}
	.st2{fill:#05B6E7;}
</style>
<path class="st0" d="M448,104c0-7.8,0-19.5,0-31.2c0-0.7,0-1.4,0-2.2c0-11.6,0-23,0-30.6L392,8c-16.6,9.3-39.5,22.5-56,32v36.3
	l-47.9,27.4c5,2.9,18.7,10.7,23.9,13.7c0,6.2,0,22,0,28l48-27.4c2.5,1.8,5.2,3.4,8,4.7v90.8c-2.8,1.3-5.4,2.8-8,4.6l-80-45.7
	c0-13.4,0-27.5,0-36.4c-16.5-9.6-39.4-22.7-56-32c-9.4,5.3-20.8,11.8-31.9,18.1H192l-80-45.7V40C95.5,30.4,72.6,17.3,56,8L0,40
	c0,7.7,0,19.2,0,30.7c0,0.7,0,1.4,0,2.2C0,84.6,0,96.2,0,104l32,18.7v90.7L0,232c0,7.8,0,19.4,0,31.1c0,0.7,0,1.4,0,2.1
	c0,11.6,0,23.1,0,30.8l56,32c16.6-9.3,39.5-22.5,56-32v-36.1l47.9-27.4c-5-2.9-18.7-10.7-23.9-13.7c0-6.2,0-22,0-28l-48,27.4
	c-0.1-0.1-0.2-0.1-0.3-0.2c-2.4-1.7-5-3.2-7.7-4.5v-90.8c2.7-1.4,5.4-2.9,8-4.7l80,45.6c0,13.4,0,27.5,0,36.4l22.4,12.8
	c7.5,5.3,25.6,14.1,33.6,19.2c9.4-5.3,20.8-11.8,31.9-18.1h0.1l80,45.6V296l22.4,12.8c7.5,5.3,25.6,14.1,33.6,19.2l56-32
	c0-7.7,0-19.2,0-30.9c0-0.7,0-1.4,0-2.1c0-11.7,0-23.3,0-31l-32-18.7v-90.8L448,104z"/>
<path class="st1" d="M455,100c0-7.8,0-19.5,0-31.2c0-0.7,0-1.4,0-2.2c0-11.6,0-23,0-30.6L399,4c-16.6,9.3-39.5,22.5-56,32v36.3
	l-47.9,27.4c5,2.9,18.7,10.7,23.9,13.7c0,6.2,0,22,0,28l48-27.4c2.5,1.8,5.2,3.4,8,4.7v90.8c-2.8,1.3-5.4,2.8-8,4.6l-80-45.7
	c0-13.4,0-27.5,0-36.4c-16.5-9.6-39.4-22.7-56-32c-9.4,5.3-20.8,11.8-31.9,18.1H199l-80-45.7V36c-16.5-9.6-39.4-22.7-56-32L7,36
	c0,7.7,0,19.2,0,30.7c0,0.7,0,1.4,0,2.2C7,80.6,7,92.2,7,100l32,18.7v90.7L7,228c0,7.8,0,19.4,0,31.1c0,0.7,0,1.4,0,2.1
	c0,11.6,0,23.1,0,30.8l56,32c16.6-9.3,39.5-22.5,56-32v-36.1l47.9-27.4c-5-2.9-18.7-10.7-23.9-13.7c0-6.2,0-22,0-28l-48,27.4
	c-0.1-0.1-0.2-0.1-0.3-0.2c-2.4-1.7-5-3.2-7.7-4.5v-90.8c2.7-1.4,5.4-2.9,8-4.7l80,45.6c0,13.4,0,27.5,0,36.4l22.4,12.8
	c7.5,5.3,25.6,14.1,33.6,19.2c9.4-5.3,20.8-11.8,31.9-18.1h0.1l80,45.6V292l22.4,12.8c7.5,5.3,25.6,14.1,33.6,19.2l56-32
	c0-7.7,0-19.2,0-30.9c0-0.7,0-1.4,0-2.1c0-11.7,0-23.3,0-31l-32-18.7v-90.8L455,100z"/>
<path class="st2" d="M462,96c0-7.8,0-19.5,0-31.2c0-0.7,0-1.4,0-2.2c0-11.6,0-23,0-30.6L406,0c-16.6,9.3-39.5,22.5-56,32v36.3
	l-47.9,27.4c5,2.9,18.7,10.7,23.9,13.7c0,6.2,0,22,0,28l48-27.4c2.5,1.8,5.2,3.4,8,4.7v90.8c-2.8,1.3-5.4,2.8-8,4.6l-80-45.7
	c0-13.4,0-27.5,0-36.4c-16.5-9.6-39.4-22.7-56-32c-9.4,5.3-20.8,11.8-31.9,18.1H206l-80-45.7V32C109.5,22.4,86.6,9.3,70,0L14,32
	c0,7.7,0,19.2,0,30.7c0,0.7,0,1.4,0,2.2c0,11.7,0,23.3,0,31.1l32,18.7v90.7L14,224c0,7.8,0,19.4,0,31.1c0,0.7,0,1.4,0,2.1
	c0,11.6,0,23.1,0,30.8l56,32c16.6-9.3,39.5-22.5,56-32v-36.1l47.9-27.4c-5-2.9-18.7-10.7-23.9-13.7c0-6.2,0-22,0-28l-48,27.4
	c-0.1-0.1-0.2-0.1-0.3-0.2c-2.4-1.7-5-3.2-7.7-4.5v-90.8c2.7-1.4,5.4-2.9,8-4.7l80,45.6c0,13.4,0,27.5,0,36.4l22.4,12.8
	c7.5,5.3,25.6,14.1,33.6,19.2c9.4-5.3,20.8-11.8,31.9-18.1h0.1l80,45.6V288l22.4,12.8c7.5,5.3,25.6,14.1,33.6,19.2l56-32
	c0-7.7,0-19.2,0-30.9c0-0.7,0-1.4,0-2.1c0-11.7,0-23.3,0-31l-32-18.7v-90.8L462,96z"/>
</svg>
